With: Elisabeth Röhm, Laura Breckenridge and Brendan Fehr

Wendy Walton is de beste ontwerpster van Boston, maar nog niemand die het weet... In de hoop haar carrière te bevorderen, neemt ze ontslag bij het lokale theater om een baan aan te nemen als de assistente van Priscilla Hall, de meest prestigieuze ontwerpster van de stad. Op een avond komt ze vast te zitten in de lift met een knappe vreemdeling. Wendy en de mysterieuze man verlaten elkaar met een impulsieve, romantische kus. De volgende dag op het werk staat de vreemdeling weer voor de deur. Het blijkt dat het Adam Hughes is, een rijke filantroop en Mevrouw Halls geliefde.

Wendy Walton is the best designer in Boston... but no one knows it yet. Hoping to kick-start her career, Wendy has left work with the local theatre to take a job as an assistant to Priscilla Hall, the most prestigious designer in the city. 

------------------------ Dutch Friends ------------------------
---------------------------------------------------------------
- Bezoek ook eens mijn vrienden op:  http://www.Film-Test.nl --
----- voor mijn Nederlandse Sync. ondertitels ---- en meer ----
------- http://www.Film-Test.nl ---- voor Films en meer -------
---------------------------------------------------------------

General:

Complete name                    : A Christmas Kiss\A Christmas Kiss.avi
Format                           : AVI
Format/Info                      : Audio Video Interleave
File size                        : 1.08 GiB
Duration                         : 1h 25mn
Overall bit rate                 : 1 806 Kbps

Video:

Format                           : MPEG-4 Visual
Format profile                   : Simple@L3
Format settings, BVOP            : No
Format settings, QPel            : No
Format settings, GMC             : No warppoints
Format settings, Matrix          : Default (H.263)
Codec ID                         : XVID
Codec ID/Hint                    : XviD
Duration                         : 1h 25mn
Bit rate                         : 1 571 Kbps
Width                            : 704 pixels
Height                           : 396 pixels
Display aspect ratio             : 16:9
Frame rate                       : 25.000 fps
Color space                      : YUV
Chroma subsampling               : 4:2:0
Bit depth                        : 8 bits
Scan type                        : Progressive
Compression mode                 : Lossy
Bits/(Pixel*Frame)               : 0.225
Stream size                      : 960 MiB (87%)
Writing library                  : XviD 1.1.2 (UTC 2006-11-01)

Audio:

Format                           : AC-3
Format/Info                      : Audio Coding 3
Mode extension                   : CM (complete main)
Codec ID                         : 2000
Duration                         : 1h 25mn
Bit rate mode                    : Constant
Bit rate                         : 224 Kbps
Channel(s)                       : 2 channels
Channel positions                : Front: L R
Sampling rate                    : 48.0 KHz
Bit depth                        : 16 bits
Compression mode                 : Lossy
Stream size                      : 137 MiB (12%)
Alignment                        : Aligned on interleaves
Interleave, duration             : 32 ms (0.80 video frame)
Interleave, preload duration     : 96 ms
